<?xml version="1.0" encoding="iso-8859-1"?>
<!-- Generator: Adobe Illustrator 16.0.0, SVG Export Plug-In . SVG Version: 6.00 Build 0)  -->
<!DOCTYPE svg PUBLIC "-//W3C//DTD SVG 1.1//EN" "http://www.w3.org/Graphics/SVG/1.1/DTD/svg11.dtd">
<svg version="1.1" id="Capa_1" xmlns="http://www.w3.org/2000/svg" xmlns:xlink="http://www.w3.org/1999/xlink" x="0px" y="0px"
	 width="186.532px" height="186.532px" viewBox="0 0 186.532 186.532" style="enable-background:new 0 0 186.532 186.532;"
	 xml:space="preserve">
<g>
	<g>
		<path d="M74.095,107.257c0,0-1.593,0.225-2.707,1.354c-1.126,1.117-1.362,2.701-1.362,2.701s1.593-0.225,2.707-1.354
			C73.858,108.847,74.095,107.257,74.095,107.257z"/>
		<path d="M70.031,113.345c0,0,0.23,1.584,1.356,2.707c1.12,1.117,2.707,1.348,2.707,1.348s-0.236-1.584-1.362-2.707
			C71.618,113.569,70.031,113.345,70.031,113.345z"/>
		<path d="M70.451,112.328c0,0,1.282,0.958,2.875,0.958c1.584,0,2.873-0.958,2.873-0.958s-1.289-0.957-2.873-0.957
			C71.733,111.377,70.451,112.328,70.451,112.328z"/>
		<path d="M69.021,98.946c-7.377,0-13.382,6.006-13.382,13.382c0,7.377,6.005,13.382,13.382,13.382
			c7.379,0,13.391-6.005,13.391-13.382C82.411,104.952,76.4,98.946,69.021,98.946z M69.021,124.759
			c-6.868,0-12.424-5.562-12.424-12.431c0-6.856,5.556-12.425,12.424-12.425c6.865,0,12.427,5.557,12.427,12.425
			C81.448,119.202,75.886,124.759,69.021,124.759z"/>
		<path d="M63.949,107.257c0,0,0.236,1.584,1.356,2.701c1.12,1.129,2.698,1.354,2.698,1.354s-0.23-1.584-1.348-2.701
			C65.536,107.493,63.949,107.257,63.949,107.257z"/>
		<path d="M63.949,117.388c0,0,1.587-0.219,2.707-1.336c1.117-1.123,1.348-2.707,1.348-2.707s-1.584,0.225-2.704,1.354
			C64.18,115.815,63.949,117.388,63.949,117.388z"/>
		<path d="M67.581,112.328c0,0-1.276-0.957-2.864-0.957c-1.59,0-2.867,0.957-2.867,0.957s1.277,0.958,2.867,0.958
			C66.305,113.286,67.581,112.328,67.581,112.328z"/>
		<path d="M68.066,116.632c0,1.578,0.955,2.872,0.955,2.872s0.958-1.288,0.958-2.872s-0.958-2.873-0.958-2.873
			S68.066,115.048,68.066,116.632z"/>
		<path d="M91.67,152.273c-1.235,0-4.649-1.814-8.16-1.814c-6.18,0-13.237,1.82-13.237,1.814c0,0,5.284,3.156,13.104,3.517
			c2.494,0.112,5.423-0.656,8.287-0.656c3.475,0,6.762,0.556,9.665,0.391c6.969-0.379,11.727-3.251,11.727-3.251
			s-5.852-1.555-11.343-1.555C97.289,150.719,93.195,152.273,91.67,152.273z"/>
		<path d="M68.066,108.025c0,1.578,0.955,2.866,0.955,2.866s0.958-1.288,0.958-2.866c0-1.584-0.958-2.873-0.958-2.873
			S68.066,106.441,68.066,108.025z"/>
		<path d="M109.261,107.257c0,0,0.225,1.584,1.348,2.701c1.123,1.129,2.701,1.354,2.701,1.354s-0.23-1.584-1.354-2.701
			C110.839,107.493,109.261,107.257,109.261,107.257z"/>
		<path d="M115.337,113.345c0,0,0.23,1.584,1.348,2.707c1.123,1.117,2.707,1.348,2.707,1.348s-0.236-1.584-1.359-2.707
			C116.921,113.569,115.337,113.345,115.337,113.345z"/>
		<path d="M113.363,116.632c0,1.578,0.957,2.872,0.957,2.872s0.958-1.294,0.958-2.872c0-1.584-0.958-2.873-0.958-2.873
			S113.363,115.048,113.363,116.632z"/>
		<path d="M119.392,107.257c0,0-1.584,0.225-2.707,1.354c-1.117,1.117-1.354,2.701-1.354,2.701s1.59-0.225,2.701-1.354
			C119.155,108.847,119.392,107.257,119.392,107.257z"/>
		<path d="M115.751,112.328c0,0,1.289,0.958,2.879,0.958s2.878-0.958,2.878-0.958s-1.288-0.957-2.878-0.957
			C117.04,111.377,115.751,112.328,115.751,112.328z"/>
		<path d="M113.363,108.025c0,1.578,0.957,2.866,0.957,2.866s0.958-1.288,0.958-2.866c0-1.584-0.958-2.873-0.958-2.873
			S113.363,106.441,113.363,108.025z"/>
		<path d="M109.249,117.388c0,0,1.59-0.219,2.707-1.336c1.123-1.123,1.354-2.707,1.354-2.707s-1.59,0.225-2.713,1.354
			C109.485,115.815,109.249,117.388,109.249,117.388z"/>
		<path d="M112.89,112.328c0,0-1.282-0.957-2.872-0.957c-1.584,0-2.86,0.957-2.86,0.957s1.276,0.958,2.86,0.958
			C111.607,113.286,112.89,112.328,112.89,112.328z"/>
		<path d="M168.688,81.252c0.071-1.339,0.213-2.657,0.213-4.019C168.9,34.646,134.252,0,91.67,0C49.089,0,14.44,34.652,14.44,77.233
			c0,22.777,9.963,43.223,25.703,57.367c10.066,30.067,38.417,51.932,51.527,51.932s41.458-21.864,51.53-51.932
			c6.23-5.604,11.515-12.236,15.676-19.577c0.957-0.721,1.773-1.542,2.317-2.506l1.82-3.168l-0.94-0.485l0.012-0.029l2.087-1.206
			c4.527-2.606,7.211-9.475,7.79-14.759C172.506,87.896,171.33,83.8,168.688,81.252z M161.418,75.017l0.035,0.405l-0.272-0.422
			L161.418,75.017z M91.67,7.356c33.26,0,61.094,23.368,68.098,54.538c-3.398-5.06-8.99-8.872-14.387-8.872l-1.496,0.169
			C115.503,26.752,73.997,21.072,43.273,26.959C55.839,14.848,72.883,7.356,91.67,7.356z M131.332,52.296
			c-3.76,0.75-7.235,2.663-9.913,5.89c-0.62,0.739-1.058,1.608-1.578,2.427c-8.245-4.333-17.862-6.476-28.17-6.476
			c-9.685,0-18.787,1.856-26.693,5.678c0.535-0.535,1.022-1.103,1.575-1.623c12.625-11.886,28.842-17.909,45.699-16.934
			C118.948,44.136,125.351,47.848,131.332,52.296z M36.5,112.979c0,2.565,0.166,5.095,0.461,7.589
			c-9.466-11.922-15.167-26.965-15.167-43.334c0-15.212,4.938-29.253,13.219-40.734c16.559-5.06,38.299-6.186,59.465-1.12
			c-12.146,2.627-23.483,8.521-32.967,17.455c-9.206,8.668-15.882,19.508-19.121,30.263C38.651,91.25,36.5,101.134,36.5,112.979z
			 M53.721,112.328c0-8.44,6.856-15.297,15.294-15.297s15.297,6.856,15.297,15.297c0,8.435-6.865,15.291-15.297,15.291
			C60.577,127.619,53.721,120.763,53.721,112.328z M91.67,163.392c-13.358,0-21.391-11.118-21.391-11.118s11.851-8.394,14.668-8.192
			c2.813,0.201,6.723,3.186,6.723,3.186s4.915-3.186,8.334-3.186c3.416,0,13.057,8.192,13.057,8.192S105.028,163.392,91.67,163.392z
			 M114.32,127.619c-8.44,0-15.297-6.856-15.297-15.291c0-8.44,6.868-15.297,15.297-15.297c1.011,0,1.998,0.106,2.944,0.296
			l0.461,1.135l0.827,1.229c-1.336-0.449-2.743-0.745-4.232-0.745c-7.376,0-13.382,6.006-13.382,13.382
			c0,7.377,6.006,13.382,13.382,13.382c7.377,0,13.388-6.005,13.388-13.382c0-2.229-0.597-4.291-1.566-6.147
			c0.574,0.213,1.136,0.474,1.715,0.592l0.721,0.142c0.645,1.685,1.041,3.499,1.041,5.414
			C129.618,120.763,122.761,127.619,114.32,127.619z M119.439,101.026c1.536,2.016,3.369,3.624,5.354,4.646
			c1.224,1.927,1.957,4.202,1.957,6.655c0,6.868-5.562,12.431-12.431,12.431s-12.424-5.562-12.424-12.431
			c0-6.856,5.556-12.425,12.424-12.425C116.153,99.903,117.873,100.317,119.439,101.026z M146.381,120.58
			c0.106-0.869,0.095-1.762,0.153-2.643c0.556,0.036,1.111,0.065,1.644,0.065C147.562,118.854,147.03,119.752,146.381,120.58z
			 M162.423,104.614c-6.62-12.82-15.972-15.223-15.972-15.223s3.605,17.257,11.716,21.4c-3.015,5.26-18.406,5.071-21.314-1.242
			c-2.908-6.312,4.977-20.489,4.977-20.489s-16.207,8.302-13.305,14.289c-6.248-1.224-12.413-11.201-8.559-20.61
			c2.831-6.91,18.843,0.777,18.843,0.777s-15.185-13.161-18.767-6.836c-2.068-10.965,5.657-23.646,17.502-21.037
			c-9.381,8.624,4.516,24.542,4.516,24.542s-5.172-17.357-1.342-21.648c5.687-6.38,18.702,3.414,18.779,12.824
			c-6.662-0.502-12.963,12.773-12.963,12.773s14.522-5.157,19.647-0.496C171.288,88.322,167.458,101.713,162.423,104.614z
			 M156.789,102.067c-0.248,0.65-0.479,1.301-0.738,1.938c-1.39-2.01-2.643-4.463-3.653-7.034
			C153.816,98.261,155.317,99.963,156.789,102.067z M154.732,78.619l-0.656,0.053l0.408-0.464L154.732,78.619z"/>
	</g>
</g>
<g>
</g>
<g>
</g>
<g>
</g>
<g>
</g>
<g>
</g>
<g>
</g>
<g>
</g>
<g>
</g>
<g>
</g>
<g>
</g>
<g>
</g>
<g>
</g>
<g>
</g>
<g>
</g>
<g>
</g>
</svg>
